HIERARCHY
ROOT Hips
{
    OFFSET 0.000000 0.000000 0.000000
    CHANNELS 6 Xposition Yposition Zposition Zrotation Xrotation Yrotation
        JOINT Chest
        {
            OFFSET -0.000000 32.910728 -0.000000
            CHANNELS 3 Zrotation Xrotation Yrotation
            JOINT Neck
            {
                OFFSET -0.000000 24.872103 0.000000
                CHANNELS 3 Zrotation Xrotation Yrotation
                JOINT Head
                {
                    OFFSET -0.000000 10.694444 0.000000
                    CHANNELS 3 Zrotation Xrotation Yrotation
                    End Site
                    {
                        OFFSET -0.000000 16.527781 0.000000
                    }
                }
            }
            JOINT LeftCollar
            {
                OFFSET -0.000000 24.872103 0.000000
                CHANNELS 3 Zrotation Xrotation Yrotation
                JOINT LeftShoulder
                {
                    OFFSET 20.500000 -0.000000 0.000000
                    CHANNELS 3 Zrotation Xrotation Yrotation
                    JOINT LeftElbow
                    {
                        OFFSET 20.261999 0.000000 0.000000
                        CHANNELS 3 Zrotation Xrotation Yrotation
                        JOINT LeftWrist
                        {
                            OFFSET 25.372869 0.000000 0.000000
                            CHANNELS 3 Zrotation Xrotation Yrotation
                            End Site
                            {
                                OFFSET 0.000000 -14.583331 0.000000
                            }
                        }
                    }
                }
            }
            JOINT RightCollar
            {
                OFFSET -0.000000 24.872103 0.000000
                CHANNELS 3 Zrotation Xrotation Yrotation
                JOINT RightShoulder
                {
                    OFFSET -20.500000 0.000000 0.000000
                    CHANNELS 3 Zrotation Xrotation Yrotation
                    JOINT RightElbow
                    {
                        OFFSET -20.261999 0.000000 0.000000
                        CHANNELS 3 Zrotation Xrotation Yrotation
                        JOINT RightWrist
                        {
                            OFFSET -25.372869 0.000000 0.000000
                            CHANNELS 3 Zrotation Xrotation Yrotation
                            End Site
                            {
                                OFFSET -0.000000 -14.583331 0.000000
                            }
                        }
                    }
                }
            }
        }
    JOINT LeftHip
    {
        OFFSET 11.666668 0.000000 0.000000
        CHANNELS 3 Zrotation Xrotation Yrotation
        JOINT LeftKnee
        {
            OFFSET -0.000000 -37.459236 0.000000
            CHANNELS 3 Zrotation Xrotation Yrotation
            JOINT LeftAnkle
            {
                OFFSET -0.000000 -38.972313 0.000000
                CHANNELS 3 Zrotation Xrotation Yrotation
                End Site
                {
                    OFFSET -0.000000 -4.861111 16.527781
                }
            }
        }
    }
    JOINT RightHip
    {
        OFFSET -11.666668 0.000000 0.000000
        CHANNELS 3 Zrotation Xrotation Yrotation
        JOINT RightKnee
        {
            OFFSET -0.000000 -37.459236 0.000000
            CHANNELS 3 Zrotation Xrotation Yrotation
            JOINT RightAnkle
            {
                OFFSET -0.000000 -38.972313 0.000000
                CHANNELS 3 Zrotation Xrotation Yrotation
                End Site
                {
                    OFFSET -0.000000 -4.861111 16.527781
                }
            }
        }
    }
}
MOTION
Frames:    13
Frame Time:    0.010000
30.258900    86.733414    -14.981829    2.782876    2.205805    -47.361633    -1.043763    54.336620    26.540569    3.285703    -20.138523    0.956685    -2.912874    1.874624    0.420921    -22.798656    -1.628479    7.878889    35.183125    80.357544    -93.132797    59.254768    -14.020185    -23.981329    99.613335    6.186529    54.425320    22.921682    0.336171    1.890392    3.171849    24.183292    58.381271    -21.357027    -3.627521    18.917728    -80.657578    6.582692    -49.981865    -2.216366    -26.843702    4.094466    5.440662    23.034121    -7.258339    -2.146545    3.783546    1.742861    -4.133445    -10.759984    -6.505566    -1.029276    25.480659    -4.541722    2.332624    -16.896894    -0.271957    
30.408318    86.679581    -14.793071    2.722853    2.114367    -47.481045    -1.703944    55.447895    27.212467    3.287754    -20.304281    0.961542    -3.116287    1.832713    0.420044    -22.838577    -1.570744    7.506543    35.390903    79.767761    -93.437485    59.322937    -13.822589    -23.697470    99.609276    6.151016    54.671425    22.637129    0.388703    2.160892    2.957466    23.478788    58.593445    -21.384949    -3.590285    18.726555    -80.577164    6.330288    -50.664227    -2.425195    -26.726755    5.181307    5.815240    22.928724    -8.668471    -1.703277    3.921334    2.262031    -4.239595    -11.159695    -6.018152    -1.116998    26.370737    -4.880229    2.629645    -17.157141    -0.188046    
30.564953    86.631264    -14.599377    2.723268    1.991214    -47.549088    -2.445928    56.531723    27.902212    3.272580    -20.455849    0.930173    -3.279893    1.774633    0.388544    -22.873865    -1.498021    7.094792    35.136219    79.141151    -93.254921    59.354546    -13.657995    -23.481474    99.624222    6.106286    54.761471    22.335564    0.429032    2.416284    2.800501    22.795891    58.756584    -21.420059    -3.550965    18.546808    -80.488243    6.109179    -51.369152    -2.684711    -26.736593    6.453806    6.239462    22.980642    -10.235814    -1.402713    3.969847    2.773332    -4.414602    -11.562394    -5.593770    -1.205272    27.241238    -5.160515    2.919724    -17.412397    -0.182142    
30.726168    86.588203    -14.401658    2.778203    1.842562    -47.563477    -3.249381    57.589008    28.599588    3.232173    -20.584860    0.870829    -3.379709    1.681139    0.313145    -22.904341    -1.421992    6.654993    34.642265    78.472534    -92.815865    59.379078    -13.528632    -23.293156    99.641487    6.063008    54.740147    22.017616    0.477559    2.659461    2.709396    22.121490    58.850197    -21.423615    -3.552150    18.402359    -80.428947    5.943334    -52.057484    -2.975608    -26.861670    7.892334    6.708444    23.176216    -11.938714    -1.230236    3.926818    3.245391    -4.653238    -11.954199    -5.217880    -1.275534    28.069784    -5.419873    3.195971    -17.656906    -0.239039    
30.889488    86.549774    -14.200440    2.878611    1.677138    -47.525192    -4.089911    58.619297    29.295717    3.167475    -20.678486    0.778022    -3.419067    1.533900    0.206449    -22.938089    -1.336765    6.198797    33.984211    77.755699    -92.193298    59.392685    -13.412547    -23.137791    99.651726    6.027142    54.656548    21.688250    0.513982    2.895257    2.669326    21.481609    58.881744    -21.483734    -3.525430    18.257313    -80.327286    5.736942    -52.811646    -3.279169    -27.082556    9.455568    7.212123    23.490398    -13.734286    -1.147506    3.802369    3.647050    -4.946932    -12.322486    -4.873870    -1.309821    28.837196    -5.698523    3.457571    -17.884880    -0.333264    
31.052797    86.515198    -13.995734    3.013374    1.503890    -47.439838    -4.948011    59.620705    29.989761    3.088537    -20.727211    0.603509    -3.429140    1.322626    0.128815    -22.984587    -1.250476    5.733640    33.287651    76.991478    -91.514488    59.410217    -13.318966    -22.986628    99.657280    6.010658    54.538937    21.354038    0.540710    3.122805    2.661571    20.882313    58.845047    -21.546017    -3.516411    18.126410    -80.256470    5.539806    -53.616337    -3.579885    -27.372969    11.083718    7.734054    23.890612    -15.561231    -1.110409    3.615813    3.956419    -5.285286    -12.656703    -4.545987    -1.294184    29.529383    -6.029036    3.707168    -18.090935    -0.436181    
31.214422    86.483589    -13.787071    3.170190    1.330326    -47.319237    -5.814029    60.593433    30.689743    3.011661    -20.726009    0.497172    -3.363369    1.069904    -0.033544    -23.053986    -1.163939    5.263155    32.552505    76.187134    -90.778793    59.433918    -13.227976    -22.844173    99.655296    5.995920    54.401642    21.021214    0.584567    3.343428    2.658480    20.303661    58.741207    -21.573795    -3.483841    18.018709    -80.214783    5.304411    -54.504066    -3.866297    -27.702738    12.711659    8.254605    24.342003    -17.352503    -1.081904    3.389949    4.165325    -5.656778    -12.949340    -4.220697    -1.221446    30.138792    -6.428042    3.947814    -18.271034    -0.523587    
31.373081    86.454147    -13.573678    3.336301    1.161084    -47.181862    -6.692001    61.542591    31.413698    2.951862    -20.680481    0.348241    -3.345516    0.771803    -0.166332    -23.153212    -1.075374    4.784567    31.708843    75.351357    -89.919861    59.455502    -13.150977    -22.724396    99.670044    6.013965    54.232510    20.698164    0.599410    3.559623    2.621845    19.787403    58.605026    -21.647821    -3.466179    17.864395    -80.186432    5.003682    -55.503433    -4.130393    -28.041920    14.289753    8.758264    24.813173    -19.058216    -1.034635    3.145104    4.281064    -6.049183    -13.195930    -3.885941    -1.092250    30.664177    -6.895261    4.181298    -18.422407    -0.578792    
31.527927    86.426254    -13.354815    3.499949    0.998636    -47.050911    -7.598727    62.476570    32.189217    2.920072    -20.603352    0.222105    -3.338334    0.459037    -0.302744    -23.283524    -0.984534    4.296863    30.729053    74.488953    -88.919174    59.479038    -13.089451    -22.629900    99.708092    6.062287    54.005169    20.383974    0.635328    3.779790    2.561863    19.282078    58.404030    -21.616770    -3.435449    17.736923    -80.242996    4.661444    -56.585476    -4.365749    -28.365915    15.795487    9.238172    25.279968    -20.659996    -0.948446    2.895391    4.324525    -6.449850    -13.395744    -3.530251    -0.913671    31.108717    -7.418787    4.408201    -18.543348    -0.592003    
31.678566    86.399742    -13.130026    3.651829    0.844104    -46.951447    -8.564974    63.402519    33.055683    2.921352    -20.514366    0.107079    -3.388721    0.148930    -0.424600    -23.441822    -0.888943    3.802298    29.666084    73.597000    -87.840027    59.510918    -13.041772    -22.553240    99.777451    6.162029    53.711075    20.078604    0.674020    4.011018    2.475156    18.791241    58.159912    -21.577038    -3.381304    17.577824    -80.332047    4.215952    -57.781773    -4.566889    -28.656651    17.223379    9.691409    25.724792    -22.157183    -0.809188    2.649723    4.324018    -6.846553    -13.552057    -3.142934    -0.697195    31.477861    -7.979687    4.628091    -18.632130    -0.559832    
31.825029    86.374817    -12.899272    3.785969    0.698132    -46.907120    -9.631366    64.322227    34.061535    2.955506    -20.431549    0.011225    -3.500541    -0.140729    -0.532305    -23.622469    -0.791604    3.307674    28.643373    72.671127    -86.817047    59.563843    -13.010688    -22.466320    99.884132    6.351740    53.360912    19.779625    0.704877    4.260964    2.384381    18.314695    57.861359    -21.507631    -3.323550    17.395563    -80.482239    3.686571    -59.055431    -4.729619    -28.900486    18.562035    10.107484    26.133720    -23.536320    -0.609495    2.416059    4.306471    -7.228464    -13.672256    -2.718261    -0.458671    31.778765    -8.551355    4.840092    -18.687759    -0.485099    
31.967567    86.352089    -12.663078    3.899513    0.561591    -46.937840    -10.846135    65.229645    35.264153    3.016575    -20.367865    -0.067377    -3.677888    -0.403573    -0.625694    -23.820238    -0.697357    2.817207    27.745520    71.712242    -85.943634    59.647793    -12.976748    -22.348536    100.026459    6.656218    52.991482    19.483013    0.730673    4.532311    2.316485    17.840858    57.496796    -21.391436    -3.266701    17.203848    -80.697235    3.069059    -60.359055    -4.851100    -29.087421    19.786673    10.465086    26.495874    -24.759081    -0.349154    2.202555    4.290425    -7.586143    -13.767054    -2.258064    -0.217733    32.020248    -9.099113    5.042876    -18.710556    -0.377260    
32.106480    86.332344    -12.422645    3.992543    0.436323    -47.057213    -12.256711    66.109901    36.722809    3.092443    -20.325857    -0.127626    -3.908253    -0.647470    -0.711682    -24.033157    -0.600290    2.330921    26.965416    70.718460    -85.215179    59.746590    -12.925495    -22.207308    100.214767    7.104731    52.653244    19.184921    0.758797    4.823308    2.293090    17.356911    57.061615    -21.230110    -3.217129    17.009968    -80.975136    2.368378    -61.646233    -4.931159    -29.212975    20.865730    10.739761    26.804506    -25.772442    -0.034568    2.016460    4.283796    -7.911804    -13.849282    -1.771623    0.004835    32.212170    -9.584658    5.234804    -18.702761    -0.250963    
